<svg enable-background="new 0 0 216.9 58" height="58" viewBox="0 0 216.9 58" width="216.9" xmlns="http://www.w3.org/2000/svg" xmlns:xlink="http://www.w3.org/1999/xlink"><clipPath id="a"><path d="m0 0h216.9v58h-216.9z"/></clipPath><clipPath id="b"><path d="m0 0h216.9v58h-216.9z"/></clipPath><clipPath id="c"><path d="m0 0h216.9v58h-216.9z"/></clipPath><clipPath id="d"><path d="m0 0h216.9v58h-216.9z"/></clipPath><clipPath id="e"><path d="m0 0h216.9v58h-216.9z"/></clipPath><clipPath id="f"><path d="m0 0h216.9v58h-216.9z"/></clipPath><clipPath id="g"><path d="m0 0h216.9v58h-216.9z"/></clipPath><clipPath id="h"><path d="m0 0h216.9v58h-216.9z"/></clipPath><path clip-path="url(#a)" d="m56.8 58h-50.8c-3.3 0-6-2.7-6-6v-46c0-3.3 2.7-6 6-6h50.8c3.3 0 6 2.7 6 6v46c0 3.4-2.7 6-6 6" fill="#29bcb3"/><g fill="#273c86"><path clip-path="url(#b)" d="m95.4 2.2h10.5l8.7 31.6v-31.6h7.6v53.8h-8.7l-10.6-38.6v38.6h-7.5z"/><path clip-path="url(#c)" d="m127.7 2.2h10.5l8.7 31.6v-31.6h7.5v53.8h-8.6l-10.6-38.6v38.6h-7.5z"/><path clip-path="url(#d)" d="m182.9 9.9v-7.7h-14.5-8.6v7.7 14.9 7.7 15.9 7.6h8.6 14.5v-7.6h-14.5v-15.9h11.6v-7.7h-11.6v-14.9z"/><path clip-path="url(#e)" d="m186.7 2.2h8.7l6.3 19.5 6.8-19.5h7.5l-8.5 25.9 9.4 27.9h-8.9l-7.2-21.4-6.8 21.4h-8.1l9.6-27.9z"/><path clip-path="url(#f)" d="m78.1 1.5c-5.7 0-12.8 2.3-12.8 12.7v13.5 2.7 13.5c0 10.4 7 12.7 12.8 12.7 5.7 0 12.8-2.3 12.8-12.7v-13.5-2.7-13.5c0-10.4-7.1-12.7-12.8-12.7m4.3 28.9v13.6c0 3.1-1.8 4.9-4.3 4.9s-4.3-1.8-4.3-4.9v-13.6-2.7-13.6c0-3.1 1.8-4.9 4.3-4.9s4.3 1.8 4.3 4.9v13.6z"/></g><path clip-path="url(#g)" d="m51.9 35.8v8c0 3.1-1.8 4.9-4.3 4.9s-4.3-1.8-4.3-4.9v-13.4-2.7-13.6c0-3.1 1.8-4.9 4.3-4.9s4.3 1.8 4.3 4.9v6.1h8.4v-6.1c0-10.3-7-12.6-12.8-12.6s-12.7 2.3-12.7 12.7v13.5 2.7 13.5c0 10.4 7 12.7 12.8 12.7s12.8-2.3 12.8-12.7v-8h-8.5z" fill="#fff"/><path clip-path="url(#h)" d="m20.1 22.1c-1.8 0-4 .1-6.9 1.6 4.2-10.4 15.2-16.2 15.2-16.2l-4.9-5.1c-5.7 1.7-9.8 4.6-15.8 12.6-6 7.9-6.3 13.7-6.3 22.6 0 7.9 5.3 18.8 17.1 18.8s17-7.6 17-18.6c-.1-10.1-8-15.7-15.4-15.7m-1.5 26.3c-5.8 0-7.6-4.8-7.6-9.2 0-4.5 1.6-8.8 7.6-8.8 4.6 0 7.3 3.8 7.3 8.6s-1.5 9.4-7.3 9.4" fill="#fff"/></svg>